<?xml version="1.0" encoding="UTF-8" standalone="no"?>
<!-- Created with Inkscape (http://www.inkscape.org/) -->

<svg
   xmlns:dc="http://purl.org/dc/elements/1.1/"
   xmlns:cc="http://creativecommons.org/ns#"
   xmlns:rdf="http://www.w3.org/1999/02/22-rdf-syntax-ns#"
   xmlns:svg="http://www.w3.org/2000/svg"
   xmlns="http://www.w3.org/2000/svg"
   xmlns:xlink="http://www.w3.org/1999/xlink"
   xmlns:sodipodi="http://sodipodi.sourceforge.net/DTD/sodipodi-0.dtd"
   xmlns:inkscape="http://www.inkscape.org/namespaces/inkscape"
   width="470.87625"
   height="174.81413"
   id="svg2"
   version="1.1"
   inkscape:version="0.48.2 r9819"
   sodipodi:docname="arch.svg">
  <defs
     id="defs4">
    <path
       style="fill:none;stroke:none"
       d="m 58.335628,257.01028 c 0.91898,5.37936 19.00999,9.65625 40.90625,9.65625 21.942142,0 40.088882,-4.26237 40.937502,-9.65625 l -81.843752,0 z"
       id="path5217-0-5-2"
       inkscape:connector-curvature="0" />
  </defs>
  <sodipodi:namedview
     id="base"
     pagecolor="#ffffff"
     bordercolor="#666666"
     borderopacity="1.0"
     inkscape:pageopacity="0.0"
     inkscape:pageshadow="2"
     inkscape:zoom="1.4"
     inkscape:cx="314.8392"
     inkscape:cy="91.130768"
     inkscape:document-units="px"
     inkscape:current-layer="layer1"
     showgrid="false"
     showguides="true"
     inkscape:guide-bbox="true"
     fit-margin-top="0"
     fit-margin-left="0"
     fit-margin-right="0"
     fit-margin-bottom="0"
     inkscape:window-width="1440"
     inkscape:window-height="862"
     inkscape:window-x="0"
     inkscape:window-y="38"
     inkscape:window-maximized="0" />
  <metadata
     id="metadata7">
    <rdf:RDF>
      <cc:Work
         rdf:about="">
        <dc:format>image/svg+xml</dc:format>
        <dc:type
           rdf:resource="http://purl.org/dc/dcmitype/StillImage" />
        <dc:title></dc:title>
      </cc:Work>
    </rdf:RDF>
  </metadata>
  <g
     inkscape:label="Ebene 1"
     inkscape:groupmode="layer"
     id="layer1"
     transform="translate(-46.655013,-126.59212)">
    <path
       inkscape:connector-curvature="0"
       style="fill:#d40000;fill-opacity:1;fill-rule:nonzero;stroke:#000000;stroke-width:1;stroke-linejoin:round;stroke-miterlimit:4;stroke-opacity:1;stroke-dasharray:none;stroke-dashoffset:0"
       d="m 51.46063,180.29581 0,110.5625 -0.0029,0 c 0.0666,5.56482 18.536975,10.0625 40.971605,10.0625 22.435055,0 40.905695,-4.46596 40.971605,-10.03093 l -0.003,-0.0316 0,-110.5625 z"
       id="path5217-0"
       sodipodi:nodetypes="cccscccc" />
    <path
       sodipodi:type="arc"
       style="fill:#d40000;fill-opacity:1;fill-rule:nonzero;stroke:#000000;stroke-width:1.02709794;stroke-linejoin:round;stroke-miterlimit:4;stroke-opacity:1;stroke-dasharray:none;stroke-dashoffset:0"
       id="path5217"
       sodipodi:cx="252.03307"
       sodipodi:cy="257.37213"
       sodipodi:rx="42.931484"
       sodipodi:ry="10.101525"
       d="m 294.96455,257.37213 c 0,5.57892 -19.22108,10.10153 -42.93148,10.10153 -23.71041,0 -42.93149,-4.52261 -42.93149,-10.10153 0,-5.57892 19.22108,-10.10152 42.93149,-10.10152 23.7104,0 42.93148,4.5226 42.93148,10.10152 z"
       transform="matrix(0.95512391,0,0,1.0038113,-148.34393,-77.932873)" />
    <path
       style="fill:none;stroke:none"
       d="m 58.335628,257.01028 c 0.91898,5.37936 19.00999,9.65625 40.90625,9.65625 21.942142,0 40.088882,-4.26237 40.937502,-9.65625 l -81.843752,0 z"
       id="path5217-0-5"
       inkscape:connector-curvature="0" />
    <text
       xml:space="preserve"
       style="font-size:10px;font-style:normal;font-weight:normal;line-height:125%;letter-spacing:0px;word-spacing:0px;fill:#000000;fill-opacity:1;stroke:none;font-family:Bitstream Vera Sans"
       id="text5284"
       sodipodi:linespacing="125%"
       transform="translate(-11.428571,28.214286)"><textPath
         xlink:href="#path5217-0-5"
         id="textPath5290"><tspan
   id="tspan5286"><tspan
     id="tspan5288"
     y="278.96814"
     x="69.710503">        Postgres</tspan></tspan></textPath></text>
    <path
       style="fill:#ff6600;fill-opacity:1;fill-rule:nonzero;stroke:#000000;stroke-width:0.99596196;stroke-linejoin:round;stroke-miterlimit:4;stroke-opacity:1;stroke-dasharray:none;stroke-dashoffset:0"
       d="m 51.625,137.5 0,36 c 0.0666,5.51997 18.53412,9.96875 40.96875,9.96875 22.43506,0 40.90284,-4.41739 40.96875,-9.9375 l 0,-0.0312 0,-36 -81.9375,0 z"
       id="path5217-0-3"
       inkscape:connector-curvature="0" />
    <path
       sodipodi:type="arc"
       style="fill:#ff6600;fill-opacity:1;fill-rule:nonzero;stroke:#000000;stroke-width:1.02709794;stroke-linejoin:round;stroke-miterlimit:4;stroke-opacity:1;stroke-dasharray:none;stroke-dashoffset:0"
       id="path5217-8"
       sodipodi:cx="252.03307"
       sodipodi:cy="257.37213"
       sodipodi:rx="42.931484"
       sodipodi:ry="10.101525"
       d="m 294.96455,257.37213 c 0,5.57892 -19.22108,10.10153 -42.93148,10.10153 -23.71041,0 -42.93149,-4.52261 -42.93149,-10.10153 0,-5.57892 19.22108,-10.10152 42.93149,-10.10152 23.7104,0 42.93148,4.5226 42.93148,10.10152 z"
       transform="matrix(0.95512391,0,0,1.0038113,-148.18969,-121.09832)" />
    <path
       style="fill:none;stroke:none"
       d="m 58.489864,141.55912 c 0.91898,5.37936 19.00999,9.65625 40.90625,9.65625 21.942136,0 40.088876,-4.26237 40.937496,-9.65625 l -81.843746,0 z"
       id="path5307"
       inkscape:connector-curvature="0" />
    <text
       xml:space="preserve"
       style="font-size:10px;font-style:normal;font-weight:normal;line-height:125%;letter-spacing:0px;word-spacing:0px;fill:#000000;fill-opacity:1;stroke:none;font-family:Bitstream Vera Sans"
       id="text5284-2"
       sodipodi:linespacing="125%"
       transform="translate(-11.274339,-89.236874)"><textPath
         xlink:href="#path5217-0-5-2"
         id="textPath5290-0"><tspan
   id="tspan5286-6"><tspan
     id="tspan5288-1"
     y="278.96814"
     x="69.710503">        PostGIS</tspan></tspan></textPath></text>
    <rect
       style="fill:none;stroke:none"
       id="rect5334"
       width="171.78572"
       height="100.35714"
       x="17.142857"
       y="46.647896" />
    <path
       style="fill:#ffffff;stroke:#000000;stroke-width:1;stroke-linecap:butt;stroke-linejoin:miter;stroke-miterlimit:4;stroke-opacity:1;stroke-dasharray:none;stroke-dashoffset:0"
       d="m 163.09977,189.86387 -12.53125,18.73083 12.53125,18.5743 0,-11.00893 0.0937,0 0,0.10435 48.28125,0 0,11.11328 12.53125,-18.73083 -12.53125,-18.62647 0,11.00892 -0.125,0 0,-0.0521 -48.25,0 0,-11.11327 z"
       id="path5363"
       inkscape:connector-curvature="0" />
    <rect
       style="fill:#d4aa00;fill-opacity:1;fill-rule:nonzero;stroke:#000000;stroke-width:0.90944904;stroke-linejoin:round;stroke-miterlimit:4;stroke-opacity:1;stroke-dasharray:none;stroke-dashoffset:0"
       id="rect5455"
       width="88.737801"
       height="95.888977"
       x="236.95857"
       y="161.16907"
       ry="10.700236" />
    <g
       transform="translate(1.4285714,28.857143)"
       style="font-size:10px;font-style:normal;font-weight:normal;line-height:125%;letter-spacing:0px;word-spacing:0px;fill:#000000;fill-opacity:1;stroke:none;font-family:Bitstream Vera Sans"
       id="flowRoot5457">
      <path
         d="m 251.8125,203.61495 0.99609,0 1.53321,6.16211 1.52832,-6.16211 1.1084,0 1.5332,6.16211 1.52832,-6.16211 1.00098,0 -1.83106,7.29004 -1.24023,0 -1.53809,-6.32812 -1.55273,6.32812 -1.24024,0 -1.82617,-7.29004"
         style="text-align:center;text-anchor:middle"
         id="path3868" />
      <path
         d="m 266.39746,207.94601 0,0.43945 -4.13086,0 c 0.0391,0.61849 0.22461,1.0905 0.55664,1.41602 0.33529,0.32226 0.80078,0.4834 1.39649,0.48339 0.34504,10e-6 0.6787,-0.0423 1.00097,-0.12695 0.32552,-0.0846 0.64778,-0.21159 0.9668,-0.38086 l 0,0.84961 c -0.32227,0.13672 -0.65267,0.24089 -0.99121,0.3125 -0.33855,0.0716 -0.68197,0.10742 -1.03027,0.10742 -0.8724,0 -1.56413,-0.2539 -2.0752,-0.76172 -0.50781,-0.50781 -0.76172,-1.19466 -0.76172,-2.06054 0,-0.89518 0.24089,-1.60482 0.72266,-2.12891 0.48502,-0.52734 1.13769,-0.79101 1.95801,-0.79101 0.73567,0 1.31672,0.23763 1.74316,0.71289 0.42968,0.47201 0.64453,1.11491 0.64453,1.92871 m -0.89844,-0.26367 c -0.007,-0.49154 -0.14486,-0.88379 -0.41504,-1.17676 -0.26693,-0.29297 -0.62174,-0.43945 -1.06445,-0.43946 -0.5013,10e-6 -0.90332,0.14161 -1.20605,0.42481 -0.29948,0.28321 -0.47201,0.68197 -0.51758,1.19629 l 3.20312,-0.005"
         style="text-align:center;text-anchor:middle"
         id="path3870" />
      <path
         d="m 271.79785,208.1755 c 0,-0.6608 -0.13672,-1.17838 -0.41015,-1.55273 -0.27019,-0.3776 -0.64291,-0.56641 -1.11817,-0.56641 -0.47526,0 -0.84961,0.18881 -1.12305,0.56641 -0.27018,0.37435 -0.40527,0.89193 -0.40527,1.55273 0,0.66081 0.13509,1.18001 0.40527,1.55762 0.27344,0.37435 0.64779,0.56152 1.12305,0.56152 0.47526,0 0.84798,-0.18717 1.11817,-0.56152 0.27343,-0.37761 0.41015,-0.89681 0.41015,-1.55762 m -3.05664,-1.90918 c 0.1888,-0.32552 0.42643,-0.5664 0.71289,-0.72266 0.28971,-0.1595 0.63476,-0.23925 1.03516,-0.23925 0.66406,0 1.20279,0.26367 1.61621,0.79101 0.41666,0.52735 0.62499,1.22071 0.625,2.08008 -1e-5,0.85938 -0.20834,1.55273 -0.625,2.08008 -0.41342,0.52734 -0.95215,0.79101 -1.61621,0.79101 -0.4004,0 -0.74545,-0.0781 -1.03516,-0.23437 -0.28646,-0.15951 -0.52409,-0.40202 -0.71289,-0.72754 l 0,0.82031 -0.90332,0 0,-7.59765 0.90332,0 0,2.95898"
         style="text-align:center;text-anchor:middle"
         id="path3872" />
      <path
         d="m 277.70605,205.59737 0,0.84961 c -0.25391,-0.1302 -0.51758,-0.22786 -0.79101,-0.29296 -0.27344,-0.0651 -0.55664,-0.0977 -0.84961,-0.0977 -0.44597,0 -0.78125,0.0684 -1.00586,0.20508 -0.22136,0.13672 -0.33203,0.3418 -0.33203,0.61523 0,0.20834 0.0798,0.37273 0.23926,0.49317 0.1595,0.11719 0.48014,0.22949 0.96191,0.33691 l 0.30762,0.0684 c 0.63802,0.13672 1.09049,0.33041 1.35742,0.58105 0.27018,0.2474 0.40527,0.59408 0.40527,1.04004 0,0.50782 -0.20182,0.90983 -0.60547,1.20606 -0.40039,0.29622 -0.95215,0.44433 -1.65527,0.44433 -0.29297,0 -0.59896,-0.0293 -0.91797,-0.0879 -0.31575,-0.0553 -0.64941,-0.13997 -1.00097,-0.2539 l 0,-0.92774 c 0.33203,0.17253 0.65917,0.30274 0.98144,0.39063 0.32227,0.0846 0.64128,0.12695 0.95703,0.12695 0.42318,0 0.7487,-0.0716 0.97656,-0.21484 0.22787,-0.14649 0.3418,-0.35157 0.3418,-0.61524 0,-0.24414 -0.083,-0.43131 -0.24902,-0.56152 -0.16277,-0.13021 -0.52247,-0.25553 -1.0791,-0.37598 l -0.3125,-0.0732 c -0.55665,-0.11719 -0.95866,-0.29622 -1.20606,-0.53711 -0.24739,-0.24414 -0.37109,-0.5778 -0.37109,-1.00098 0,-0.51431 0.18229,-0.91145 0.54687,-1.1914 0.36459,-0.27994 0.88216,-0.41992 1.55274,-0.41992 0.33203,0 0.64453,0.0244 0.9375,0.0732 0.29296,0.0488 0.56314,0.12207 0.81054,0.21972"
         style="text-align:center;text-anchor:middle"
         id="path3874" />
      <path
         d="m 284.1123,207.94601 0,0.43945 -4.13085,0 c 0.0391,0.61849 0.2246,1.0905 0.55664,1.41602 0.33528,0.32226 0.80077,0.4834 1.39648,0.48339 0.34505,10e-6 0.67871,-0.0423 1.00098,-0.12695 0.32551,-0.0846 0.64778,-0.21159 0.96679,-0.38086 l 0,0.84961 c -0.32227,0.13672 -0.65267,0.24089 -0.99121,0.3125 -0.33854,0.0716 -0.68197,0.10742 -1.03027,0.10742 -0.8724,0 -1.56413,-0.2539 -2.0752,-0.76172 -0.50781,-0.50781 -0.76172,-1.19466 -0.76171,-2.06054 -10e-6,-0.89518 0.24088,-1.60482 0.72265,-2.12891 0.48503,-0.52734 1.13769,-0.79101 1.95801,-0.79101 0.73567,0 1.31673,0.23763 1.74316,0.71289 0.42969,0.47201 0.64453,1.11491 0.64453,1.92871 m -0.89843,-0.26367 c -0.007,-0.49154 -0.14486,-0.88379 -0.41504,-1.17676 -0.26693,-0.29297 -0.62175,-0.43945 -1.06446,-0.43946 -0.5013,10e-6 -0.90332,0.14161 -1.20605,0.42481 -0.29948,0.28321 -0.47201,0.68197 -0.51758,1.19629 l 3.20313,-0.005"
         style="text-align:center;text-anchor:middle"
         id="path3876" />
      <path
         d="m 288.75586,206.27609 c -0.10092,-0.0586 -0.21159,-0.10091 -0.33203,-0.12696 -0.11719,-0.0293 -0.2474,-0.0439 -0.39063,-0.0439 -0.50781,0 -0.89844,0.16602 -1.17187,0.49804 -0.27019,0.32878 -0.40528,0.80242 -0.40528,1.4209 l 0,2.88086 -0.90332,0 0,-5.46875 0.90332,0 0,0.84961 c 0.1888,-0.33203 0.43457,-0.57779 0.73731,-0.7373 0.30273,-0.16276 0.67057,-0.24414 1.10351,-0.24414 0.0618,0 0.13021,0.005 0.20508,0.0146 0.0749,0.007 0.15788,0.0179 0.24903,0.0342 l 0.005,0.92286"
         style="text-align:center;text-anchor:middle"
         id="path3878" />
      <path
         d="m 289.06348,205.43624 0.95214,0 1.70899,4.58985 1.70898,-4.58985 0.95215,0 -2.05078,5.46875 -1.2207,0 -2.05078,-5.46875"
         style="text-align:center;text-anchor:middle"
         id="path3880" />
      <path
         d="m 300.30371,207.94601 0,0.43945 -4.13086,0 c 0.0391,0.61849 0.22461,1.0905 0.55664,1.41602 0.33529,0.32226 0.80078,0.4834 1.39649,0.48339 0.34504,10e-6 0.6787,-0.0423 1.00097,-0.12695 0.32552,-0.0846 0.64778,-0.21159 0.9668,-0.38086 l 0,0.84961 c -0.32227,0.13672 -0.65267,0.24089 -0.99121,0.3125 -0.33855,0.0716 -0.68197,0.10742 -1.03027,0.10742 -0.8724,0 -1.56413,-0.2539 -2.0752,-0.76172 -0.50781,-0.50781 -0.76172,-1.19466 -0.76172,-2.06054 0,-0.89518 0.24089,-1.60482 0.72266,-2.12891 0.48502,-0.52734 1.13769,-0.79101 1.95801,-0.79101 0.73567,0 1.31672,0.23763 1.74316,0.71289 0.42968,0.47201 0.64453,1.11491 0.64453,1.92871 m -0.89844,-0.26367 c -0.007,-0.49154 -0.14486,-0.88379 -0.41504,-1.17676 -0.26693,-0.29297 -0.62174,-0.43945 -1.06445,-0.43946 -0.5013,10e-6 -0.90332,0.14161 -1.20605,0.42481 -0.29948,0.28321 -0.47201,0.68197 -0.51758,1.19629 l 3.20312,-0.005"
         style="text-align:center;text-anchor:middle"
         id="path3882" />
      <path
         d="m 304.94727,206.27609 c -0.10092,-0.0586 -0.2116,-0.10091 -0.33204,-0.12696 -0.11719,-0.0293 -0.24739,-0.0439 -0.39062,-0.0439 -0.50782,0 -0.89844,0.16602 -1.17188,0.49804 -0.27018,0.32878 -0.40527,0.80242 -0.40527,1.4209 l 0,2.88086 -0.90332,0 0,-5.46875 0.90332,0 0,0.84961 c 0.1888,-0.33203 0.43457,-0.57779 0.73731,-0.7373 0.30273,-0.16276 0.67057,-0.24414 1.10351,-0.24414 0.0619,0 0.13021,0.005 0.20508,0.0146 0.0749,0.007 0.15787,0.0179 0.24902,0.0342 l 0.005,0.92286"
         style="text-align:center;text-anchor:middle"
         id="path3884" />
      <path
         d="m 259.34668,215.8171 c -0.4362,0.74871 -0.76009,1.48926 -0.97168,2.22168 -0.21159,0.73243 -0.31738,1.47461 -0.31738,2.22656 0,0.75196 0.10579,1.4974 0.31738,2.23633 0.21484,0.73568 0.53873,1.47624 0.97168,2.22168 l -0.78125,0 c -0.48828,-0.76497 -0.85449,-1.51693 -1.09863,-2.25586 -0.24089,-0.73893 -0.36133,-1.47298 -0.36133,-2.20215 0,-0.7259 0.12044,-1.4567 0.36133,-2.19238 0.24088,-0.73567 0.60709,-1.48762 1.09863,-2.25586 l 0.78125,0"
         style="text-align:center;text-anchor:middle"
         id="path3886" />
      <path
         d="m 265.64062,220.10421 0,3.30078 -0.89843,0 0,-3.27148 c -10e-6,-0.51758 -0.10092,-0.90495 -0.30274,-1.16211 -0.20182,-0.25716 -0.50456,-0.38574 -0.9082,-0.38574 -0.48503,0 -0.86752,0.15462 -1.14746,0.46386 -0.27995,0.30925 -0.41992,0.7308 -0.41992,1.26465 l 0,3.09082 -0.90332,0 0,-5.46875 0.90332,0 0,0.84961 c 0.21484,-0.32877 0.46712,-0.57454 0.75683,-0.7373 0.29297,-0.16276 0.62988,-0.24414 1.01075,-0.24414 0.62825,0 1.10351,0.19531 1.42578,0.58593 0.32226,0.38738 0.48339,0.95867 0.48339,1.71387"
         style="text-align:center;text-anchor:middle"
         id="path3888" />
      <path
         d="m 269.56152,218.56612 c -0.48177,10e-6 -0.86263,0.18881 -1.14257,0.56641 -0.27995,0.37435 -0.41993,0.88868 -0.41993,1.54297 0,0.6543 0.13835,1.17025 0.41504,1.54785 0.27995,0.37435 0.66243,0.56153 1.14746,0.56152 0.47852,10e-6 0.85775,-0.1888 1.1377,-0.5664 0.27994,-0.3776 0.41992,-0.89193 0.41992,-1.54297 0,-0.64778 -0.13998,-1.16048 -0.41992,-1.53809 -0.27995,-0.38085 -0.65918,-0.57128 -1.1377,-0.57129 m 0,-0.76171 c 0.78125,0 1.39486,0.25391 1.84082,0.76171 0.44596,0.50782 0.66894,1.21095 0.66895,2.10938 -10e-6,0.89518 -0.22299,1.59831 -0.66895,2.10937 -0.44596,0.50782 -1.05957,0.76172 -1.84082,0.76172 -0.7845,0 -1.39974,-0.2539 -1.8457,-0.76172 -0.44271,-0.51106 -0.66406,-1.21419 -0.66406,-2.10937 0,-0.89843 0.22135,-1.60156 0.66406,-2.10938 0.44596,-0.5078 1.0612,-0.76171 1.8457,-0.76171"
         style="text-align:center;text-anchor:middle"
         id="path3890" />
      <path
         d="m 277.1543,218.76632 0,-2.95898 0.89843,0 0,7.59765 -0.89843,0 0,-0.82031 c -0.18881,0.32552 -0.42807,0.56803 -0.71778,0.72754 -0.28646,0.15625 -0.63151,0.23437 -1.03515,0.23437 -0.66081,0 -1.19955,-0.26367 -1.61621,-0.79101 -0.41342,-0.52735 -0.62012,-1.2207 -0.62012,-2.08008 0,-0.85937 0.2067,-1.55273 0.62012,-2.08008 0.41666,-0.52734 0.9554,-0.79101 1.61621,-0.79101 0.40364,0 0.74869,0.0798 1.03515,0.23925 0.28971,0.15626 0.52897,0.39714 0.71778,0.72266 m -3.06153,1.90918 c 0,0.66081 0.13509,1.18001 0.40528,1.55762 0.27343,0.37435 0.64778,0.56152 1.12304,0.56152 0.47526,0 0.84961,-0.18717 1.12305,-0.56152 0.27343,-0.37761 0.41015,-0.89681 0.41016,-1.55762 -10e-6,-0.6608 -0.13673,-1.17838 -0.41016,-1.55273 -0.27344,-0.3776 -0.64779,-0.56641 -1.12305,-0.56641 -0.47526,0 -0.84961,0.18881 -1.12304,0.56641 -0.27019,0.37435 -0.40528,0.89193 -0.40528,1.55273"
         style="text-align:center;text-anchor:middle"
         id="path3892" />
      <path
         d="m 284.58105,220.44601 0,0.43945 -4.13085,0 c 0.0391,0.61849 0.2246,1.0905 0.55664,1.41602 0.33528,0.32226 0.80077,0.4834 1.39648,0.48339 0.34505,10e-6 0.67871,-0.0423 1.00098,-0.12695 0.32551,-0.0846 0.64778,-0.21159 0.96679,-0.38086 l 0,0.84961 c -0.32227,0.13672 -0.65267,0.24089 -0.99121,0.3125 -0.33854,0.0716 -0.68197,0.10742 -1.03027,0.10742 -0.8724,0 -1.56413,-0.2539 -2.0752,-0.76172 -0.50781,-0.50781 -0.76172,-1.19466 -0.76171,-2.06054 -10e-6,-0.89518 0.24088,-1.60482 0.72265,-2.12891 0.48503,-0.52734 1.13769,-0.79101 1.95801,-0.79101 0.73567,0 1.31673,0.23763 1.74316,0.71289 0.42969,0.47201 0.64453,1.11491 0.64453,1.92871 m -0.89843,-0.26367 c -0.007,-0.49154 -0.14486,-0.88379 -0.41504,-1.17676 -0.26693,-0.29297 -0.62175,-0.43945 -1.06446,-0.43946 -0.5013,10e-6 -0.90332,0.14161 -1.20605,0.42481 -0.29948,0.28321 -0.47201,0.68197 -0.51758,1.19629 l 3.20313,-0.005"
         style="text-align:center;text-anchor:middle"
         id="path3894" />
      <path
         d="m 286.18262,222.16476 1.03027,0 0,1.24023 -1.03027,0 0,-1.24023"
         style="text-align:center;text-anchor:middle"
         id="path3896" />
      <path
         d="m 289.23926,217.93624 0.89844,0 0,5.56641 c -10e-6,0.69661 -0.13347,1.20117 -0.4004,1.51367 -0.26367,0.3125 -0.6901,0.46875 -1.27929,0.46875 l -0.3418,0 0,-0.76172 0.23926,0 c 0.3418,0 0.57454,-0.0798 0.69824,-0.23926 0.1237,-0.15625 0.18555,-0.4834 0.18555,-0.98144 l 0,-5.56641 m 0,-2.1289 0.89844,0 0,1.13769 -0.89844,0 0,-1.13769"
         style="text-align:center;text-anchor:middle"
         id="path3898" />
      <path
         d="m 295.49902,218.09737 0,0.84961 c -0.25391,-0.1302 -0.51758,-0.22786 -0.79101,-0.29296 -0.27344,-0.0651 -0.55665,-0.0977 -0.84961,-0.0977 -0.44597,0 -0.78125,0.0684 -1.00586,0.20508 -0.22136,0.13672 -0.33203,0.3418 -0.33203,0.61523 0,0.20834 0.0797,0.37273 0.23926,0.49317 0.1595,0.11719 0.48014,0.22949 0.96191,0.33691 l 0.30762,0.0684 c 0.63801,0.13672 1.09049,0.33041 1.35742,0.58105 0.27018,0.2474 0.40527,0.59408 0.40527,1.04004 0,0.50782 -0.20183,0.90983 -0.60547,1.20606 -0.40039,0.29622 -0.95215,0.44433 -1.65527,0.44433 -0.29297,0 -0.59896,-0.0293 -0.91797,-0.0879 -0.31576,-0.0553 -0.64941,-0.13997 -1.00098,-0.2539 l 0,-0.92774 c 0.33204,0.17253 0.65918,0.30274 0.98145,0.39063 0.32226,0.0846 0.64127,0.12695 0.95703,0.12695 0.42318,0 0.7487,-0.0716 0.97656,-0.21484 0.22786,-0.14649 0.3418,-0.35157 0.3418,-0.61524 0,-0.24414 -0.083,-0.43131 -0.24902,-0.56152 -0.16277,-0.13021 -0.52247,-0.25553 -1.0791,-0.37598 l -0.3125,-0.0732 c -0.55665,-0.11719 -0.95866,-0.29622 -1.20606,-0.53711 -0.2474,-0.24414 -0.37109,-0.5778 -0.37109,-1.00098 0,-0.51431 0.18229,-0.91145 0.54687,-1.1914 0.36458,-0.27994 0.88216,-0.41992 1.55274,-0.41992 0.33202,0 0.64452,0.0244 0.9375,0.0732 0.29296,0.0488 0.56314,0.12207 0.81054,0.21972"
         style="text-align:center;text-anchor:middle"
         id="path3900" />
      <path
         d="m 297.08594,215.8171 0.78125,0 c 0.48828,0.76824 0.85286,1.52019 1.09375,2.25586 0.24414,0.73568 0.36621,1.46648 0.36621,2.19238 0,0.72917 -0.12207,1.46322 -0.36621,2.20215 -0.24089,0.73893 -0.60547,1.49089 -1.09375,2.25586 l -0.78125,0 c 0.43294,-0.74544 0.7552,-1.486 0.96679,-2.22168 0.21485,-0.73893 0.32227,-1.48437 0.32227,-2.23633 0,-0.75195 -0.10742,-1.49413 -0.32227,-2.22656 -0.21159,-0.73242 -0.53385,-1.47297 -0.96679,-2.22168"
         style="text-align:center;text-anchor:middle"
         id="path3902" />
    </g>
    <path
       style="fill:#ffffff;stroke:#000000;stroke-width:1;stroke-linecap:butt;stroke-linejoin:miter;stroke-miterlimit:4;stroke-opacity:1;stroke-dasharray:none;fill-opacity:1"
       d="m 352.95538,191.46241 -12.53125,18.73083 12.53125,18.5743 0,-11.00893 0.0937,0 0,0.10435 48.28125,0 0,11.11328 12.53125,-18.73083 -12.53125,-18.62647 0,11.00892 -0.125,0 0,-0.0521 -48.25,0 0,-11.11327 z"
       id="path5363-7"
       inkscape:connector-curvature="0" />
    <rect
       style="fill:#ffff00;fill-opacity:1;fill-rule:nonzero;stroke:#000000;stroke-width:0.90944904;stroke-linejoin:round;stroke-miterlimit:4;stroke-opacity:1;stroke-dasharray:none;stroke-dashoffset:0"
       id="rect5455-0"
       width="88.737801"
       height="95.888977"
       x="428.34537"
       y="160.13199"
       ry="10.700236" />
    <g
       transform="translate(192.10109,28.534341)"
       style="font-size:10px;font-style:normal;font-weight:normal;line-height:125%;letter-spacing:0px;word-spacing:0px;fill:#000000;fill-opacity:1;stroke:none;font-family:Bitstream Vera Sans"
       id="flowRoot5457-1">
      <path
         d="m 259.91309,207.42355 0,2.67089 1.58203,0 c 0.53059,1e-5 0.92284,-0.10904 1.17675,-0.32714 0.25716,-0.22136 0.38574,-0.55827 0.38575,-1.01075 -10e-6,-0.45572 -0.12859,-0.79101 -0.38575,-1.00586 -0.25391,-0.21809 -0.64616,-0.32714 -1.17675,-0.32714 l -1.58203,0 m 0,-2.99805 0,2.19727 1.45996,0 c 0.48176,0 0.83984,-0.0895 1.07422,-0.26856 0.23762,-0.18229 0.35644,-0.45898 0.35644,-0.83008 0,-0.36783 -0.11882,-0.6429 -0.35644,-0.82519 -0.23438,-0.18229 -0.59246,-0.27343 -1.07422,-0.27344 l -1.45996,0 m -0.98633,-0.81055 2.51953,0 c 0.75195,1e-5 1.33137,0.15626 1.73828,0.46875 0.4069,0.31251 0.61035,0.75684 0.61035,1.33301 0,0.44597 -0.10417,0.80079 -0.3125,1.06445 -0.20834,0.26368 -0.51433,0.42807 -0.91797,0.49317 0.48502,0.10417 0.861,0.32227 1.12793,0.65429 0.27018,0.32878 0.40527,0.74057 0.40528,1.23536 -1e-5,0.65104 -0.22136,1.15397 -0.66407,1.50879 -0.44271,0.35481 -1.07259,0.53222 -1.88964,0.53222 l -2.61719,0 0,-7.29004"
         style="text-align:center;text-anchor:middle"
         id="path3905" />
      <path
         d="m 268.91211,206.27609 c -0.10092,-0.0586 -0.21159,-0.10091 -0.33203,-0.12696 -0.11719,-0.0293 -0.2474,-0.0439 -0.39063,-0.0439 -0.50781,0 -0.89844,0.16602 -1.17187,0.49804 -0.27019,0.32878 -0.40528,0.80242 -0.40528,1.4209 l 0,2.88086 -0.90332,0 0,-5.46875 0.90332,0 0,0.84961 c 0.1888,-0.33203 0.43457,-0.57779 0.73731,-0.7373 0.30273,-0.16276 0.67057,-0.24414 1.10351,-0.24414 0.0618,0 0.13021,0.005 0.20508,0.0146 0.0749,0.007 0.15788,0.0179 0.24903,0.0342 l 0.005,0.92286"
         style="text-align:center;text-anchor:middle"
         id="path3907" />
      <path
         d="m 271.76855,206.06612 c -0.48177,10e-6 -0.86263,0.18881 -1.14257,0.56641 -0.27995,0.37435 -0.41993,0.88868 -0.41993,1.54297 0,0.6543 0.13835,1.17025 0.41504,1.54785 0.27995,0.37435 0.66244,0.56153 1.14746,0.56152 0.47852,10e-6 0.85775,-0.1888 1.1377,-0.5664 0.27994,-0.3776 0.41992,-0.89193 0.41992,-1.54297 0,-0.64778 -0.13998,-1.16048 -0.41992,-1.53809 -0.27995,-0.38085 -0.65918,-0.57128 -1.1377,-0.57129 m 0,-0.76171 c 0.78125,0 1.39486,0.25391 1.84082,0.76171 0.44596,0.50782 0.66894,1.21095 0.66895,2.10938 -1e-5,0.89518 -0.22299,1.59831 -0.66895,2.10937 -0.44596,0.50782 -1.05957,0.76172 -1.84082,0.76172 -0.7845,0 -1.39974,-0.2539 -1.8457,-0.76172 -0.44271,-0.51106 -0.66406,-1.21419 -0.66406,-2.10937 0,-0.89843 0.22135,-1.60156 0.66406,-2.10938 0.44596,-0.5078 1.0612,-0.76171 1.8457,-0.76171"
         style="text-align:center;text-anchor:middle"
         id="path3909" />
      <path
         d="m 275.24023,205.43624 0.89844,0 1.12305,4.26758 1.11816,-4.26758 1.05957,0 1.12305,4.26758 1.11816,-4.26758 0.89844,0 -1.43066,5.46875 -1.05957,0 -1.17676,-4.48242 -1.18164,4.48242 -1.05957,0 -1.43067,-5.46875"
         style="text-align:center;text-anchor:middle"
         id="path3911" />
      <path
         d="m 287.43262,205.59737 0,0.84961 c -0.25391,-0.1302 -0.51758,-0.22786 -0.79102,-0.29296 -0.27344,-0.0651 -0.55664,-0.0977 -0.84961,-0.0977 -0.44596,0 -0.78125,0.0684 -1.00586,0.20508 -0.22135,0.13672 -0.33203,0.3418 -0.33203,0.61523 0,0.20834 0.0797,0.37273 0.23926,0.49317 0.1595,0.11719 0.48014,0.22949 0.96191,0.33691 l 0.30762,0.0684 c 0.63802,0.13672 1.09049,0.33041 1.35742,0.58105 0.27018,0.2474 0.40527,0.59408 0.40528,1.04004 -1e-5,0.50782 -0.20183,0.90983 -0.60547,1.20606 -0.4004,0.29622 -0.95215,0.44433 -1.65528,0.44433 -0.29297,0 -0.59896,-0.0293 -0.91797,-0.0879 -0.31575,-0.0553 -0.64941,-0.13997 -1.00097,-0.2539 l 0,-0.92774 c 0.33203,0.17253 0.65918,0.30274 0.98144,0.39063 0.32227,0.0846 0.64128,0.12695 0.95703,0.12695 0.42318,0 0.7487,-0.0716 0.97657,-0.21484 0.22786,-0.14649 0.34179,-0.35157 0.34179,-0.61524 0,-0.24414 -0.083,-0.43131 -0.24902,-0.56152 -0.16276,-0.13021 -0.52246,-0.25553 -1.0791,-0.37598 l -0.3125,-0.0732 c -0.55664,-0.11719 -0.95866,-0.29622 -1.20606,-0.53711 -0.24739,-0.24414 -0.37109,-0.5778 -0.37109,-1.00098 0,-0.51431 0.18229,-0.91145 0.54688,-1.1914 0.36458,-0.27994 0.88216,-0.41992 1.55273,-0.41992 0.33203,0 0.64453,0.0244 0.9375,0.0732 0.29297,0.0488 0.56315,0.12207 0.81055,0.21972"
         style="text-align:center;text-anchor:middle"
         id="path3913" />
      <path
         d="m 293.83887,207.94601 0,0.43945 -4.13086,0 c 0.0391,0.61849 0.22461,1.0905 0.55664,1.41602 0.33528,0.32226 0.80078,0.4834 1.39648,0.48339 0.34505,10e-6 0.67871,-0.0423 1.00098,-0.12695 0.32552,-0.0846 0.64778,-0.21159 0.9668,-0.38086 l 0,0.84961 c -0.32227,0.13672 -0.65268,0.24089 -0.99121,0.3125 -0.33855,0.0716 -0.68197,0.10742 -1.03028,0.10742 -0.8724,0 -1.56413,-0.2539 -2.07519,-0.76172 -0.50782,-0.50781 -0.76172,-1.19466 -0.76172,-2.06054 0,-0.89518 0.24088,-1.60482 0.72265,-2.12891 0.48503,-0.52734 1.1377,-0.79101 1.95801,-0.79101 0.73567,0 1.31673,0.23763 1.74317,0.71289 0.42968,0.47201 0.64452,1.11491 0.64453,1.92871 m -0.89844,-0.26367 c -0.007,-0.49154 -0.14486,-0.88379 -0.41504,-1.17676 -0.26693,-0.29297 -0.62175,-0.43945 -1.06445,-0.43946 -0.50131,10e-6 -0.90333,0.14161 -1.20606,0.42481 -0.29948,0.28321 -0.472,0.68197 -0.51758,1.19629 l 3.20313,-0.005"
         style="text-align:center;text-anchor:middle"
         id="path3915" />
      <path
         d="m 298.48242,206.27609 c -0.10091,-0.0586 -0.21159,-0.10091 -0.33203,-0.12696 -0.11719,-0.0293 -0.2474,-0.0439 -0.39062,-0.0439 -0.50782,0 -0.89844,0.16602 -1.17188,0.49804 -0.27018,0.32878 -0.40527,0.80242 -0.40527,1.4209 l 0,2.88086 -0.90332,0 0,-5.46875 0.90332,0 0,0.84961 c 0.1888,-0.33203 0.43457,-0.57779 0.7373,-0.7373 0.30273,-0.16276 0.67057,-0.24414 1.10352,-0.24414 0.0618,0 0.1302,0.005 0.20508,0.0146 0.0749,0.007 0.15787,0.0179 0.24902,0.0342 l 0.005,0.92286"
         style="text-align:center;text-anchor:middle"
         id="path3917" />
      <path
         d="m 260.38184,215.8171 c -0.4362,0.74871 -0.7601,1.48926 -0.97168,2.22168 -0.21159,0.73243 -0.31739,1.47461 -0.31739,2.22656 0,0.75196 0.1058,1.4974 0.31739,2.23633 0.21484,0.73568 0.53873,1.47624 0.97168,2.22168 l -0.78125,0 c -0.48829,-0.76497 -0.8545,-1.51693 -1.09864,-2.25586 -0.24088,-0.73893 -0.36133,-1.47298 -0.36133,-2.20215 0,-0.7259 0.12045,-1.4567 0.36133,-2.19238 0.24089,-0.73567 0.6071,-1.48762 1.09864,-2.25586 l 0.78125,0"
         style="text-align:center;text-anchor:middle"
         id="path3919" />
      <path
         d="m 262.16895,216.11495 0.98632,0 0,6.45996 3.54981,0 0,0.83008 -4.53613,0 0,-7.29004"
         style="text-align:center;text-anchor:middle"
         id="path3921" />
      <path
         d="m 272.19824,220.44601 0,0.43945 -4.13086,0 c 0.0391,0.61849 0.22461,1.0905 0.55664,1.41602 0.33529,0.32226 0.80078,0.4834 1.39649,0.48339 0.34505,10e-6 0.6787,-0.0423 1.00097,-0.12695 0.32552,-0.0846 0.64779,-0.21159 0.9668,-0.38086 l 0,0.84961 c -0.32227,0.13672 -0.65267,0.24089 -0.99121,0.3125 -0.33855,0.0716 -0.68197,0.10742 -1.03027,0.10742 -0.8724,0 -1.56413,-0.2539 -2.0752,-0.76172 -0.50781,-0.50781 -0.76172,-1.19466 -0.76172,-2.06054 0,-0.89518 0.24089,-1.60482 0.72266,-2.12891 0.48502,-0.52734 1.13769,-0.79101 1.95801,-0.79101 0.73567,0 1.31672,0.23763 1.74316,0.71289 0.42968,0.47201 0.64453,1.11491 0.64453,1.92871 m -0.89844,-0.26367 c -0.007,-0.49154 -0.14486,-0.88379 -0.41503,-1.17676 -0.26694,-0.29297 -0.62175,-0.43945 -1.06446,-0.43946 -0.5013,10e-6 -0.90332,0.14161 -1.20605,0.42481 -0.29948,0.28321 -0.47201,0.68197 -0.51758,1.19629 l 3.20312,-0.005"
         style="text-align:center;text-anchor:middle"
         id="path3923" />
      <path
         d="m 276.1582,220.65597 c -0.72591,0 -1.22884,0.083 -1.50879,0.24902 -0.27995,0.16602 -0.41992,0.44922 -0.41992,0.84961 0,0.31901 0.10417,0.57292 0.3125,0.76172 0.21159,0.18555 0.49805,0.27832 0.85938,0.27832 0.49804,0 0.8968,-0.17578 1.19629,-0.52734 0.30273,-0.35482 0.45409,-0.8252 0.4541,-1.41114 l 0,-0.20019 -0.89356,0 m 1.792,-0.3711 0,3.12012 -0.89844,0 0,-0.83008 c -0.20508,0.33204 -0.46062,0.5778 -0.7666,0.73731 -0.306,0.15625 -0.68035,0.23437 -1.12305,0.23437 -0.5599,0 -1.00586,-0.15625 -1.33789,-0.46875 -0.32878,-0.31575 -0.49317,-0.7373 -0.49317,-1.26465 0,-0.61523 0.20508,-1.07909 0.61524,-1.3916 0.41341,-0.31249 1.02864,-0.46874 1.8457,-0.46875 l 1.25977,0 0,-0.0879 c -10e-6,-0.4134 -0.13673,-0.73242 -0.41016,-0.95703 -0.27018,-0.22786 -0.65104,-0.34179 -1.14258,-0.3418 -0.3125,10e-6 -0.61686,0.0374 -0.91308,0.11231 -0.29623,0.0749 -0.58106,0.18718 -0.85449,0.33691 l 0,-0.83007 c 0.32877,-0.12695 0.64778,-0.22135 0.95703,-0.28321 0.30924,-0.0651 0.61035,-0.0977 0.90332,-0.0977 0.79101,0 1.38183,0.20508 1.77246,0.61523 0.39062,0.41016 0.58593,1.03191 0.58594,1.86523"
         style="text-align:center;text-anchor:middle"
         id="path3925" />
      <path
         d="m 281.72461,215.80734 2.5,0 0,7.59765 -0.90332,0 0,-6.85058 -1.60645,0 c -0.32226,0 -0.54687,0.0651 -0.67382,0.19531 -0.1237,0.13021 -0.18555,0.36459 -0.18555,0.70312 l 0,0.4834 1.47949,0 0,0.69824 -1.47949,0 0,4.77051 -0.90332,0 0,-4.77051 -0.85938,0 0,-0.69824 0.85938,0 0,-0.38086 c 0,-0.60872 0.1416,-1.05142 0.4248,-1.32812 0.2832,-0.27994 0.73242,-0.41992 1.34766,-0.41992"
         style="text-align:center;text-anchor:middle"
         id="path3927" />
      <path
         d="m 290.79199,220.44601 0,0.43945 -4.13086,0 c 0.0391,0.61849 0.22461,1.0905 0.55664,1.41602 0.33529,0.32226 0.80078,0.4834 1.39649,0.48339 0.34505,10e-6 0.6787,-0.0423 1.00097,-0.12695 0.32552,-0.0846 0.64779,-0.21159 0.9668,-0.38086 l 0,0.84961 c -0.32227,0.13672 -0.65267,0.24089 -0.99121,0.3125 -0.33855,0.0716 -0.68197,0.10742 -1.03027,0.10742 -0.8724,0 -1.56413,-0.2539 -2.0752,-0.76172 -0.50781,-0.50781 -0.76172,-1.19466 -0.76172,-2.06054 0,-0.89518 0.24089,-1.60482 0.72266,-2.12891 0.48502,-0.52734 1.13769,-0.79101 1.95801,-0.79101 0.73567,0 1.31672,0.23763 1.74316,0.71289 0.42968,0.47201 0.64453,1.11491 0.64453,1.92871 m -0.89844,-0.26367 c -0.007,-0.49154 -0.14486,-0.88379 -0.41503,-1.17676 -0.26694,-0.29297 -0.62175,-0.43945 -1.06446,-0.43946 -0.5013,10e-6 -0.90332,0.14161 -1.20605,0.42481 -0.29948,0.28321 -0.47201,0.68197 -0.51758,1.19629 l 3.20312,-0.005"
         style="text-align:center;text-anchor:middle"
         id="path3929" />
      <path
         d="m 293.15527,216.38351 0,1.55273 1.85059,0 0,0.69824 -1.85059,0 0,2.96875 c 0,0.44597 0.0602,0.73243 0.18067,0.85938 0.12369,0.12695 0.37272,0.19043 0.74707,0.19043 l 0.92285,0 0,0.75195 -0.92285,0 c -0.69336,0 -1.17188,-0.12858 -1.43555,-0.38574 -0.26367,-0.26042 -0.39551,-0.73242 -0.39551,-1.41602 l 0,-2.96875 -0.65918,0 0,-0.69824 0.65918,0 0,-1.55273 0.90332,0"
         style="text-align:center;text-anchor:middle"
         id="path3931" />
      <path
         d="m 296.05078,215.8171 0.78125,0 c 0.48828,0.76824 0.85286,1.52019 1.09375,2.25586 0.24414,0.73568 0.36621,1.46648 0.36621,2.19238 0,0.72917 -0.12207,1.46322 -0.36621,2.20215 -0.24089,0.73893 -0.60547,1.49089 -1.09375,2.25586 l -0.78125,0 c 0.43294,-0.74544 0.75521,-1.486 0.9668,-2.22168 0.21484,-0.73893 0.32226,-1.48437 0.32226,-2.23633 0,-0.75195 -0.10742,-1.49413 -0.32226,-2.22656 -0.21159,-0.73242 -0.53386,-1.47297 -0.9668,-2.22168"
         style="text-align:center;text-anchor:middle"
         id="path3933" />
    </g>
    <g
       style="font-size:10px;font-style:normal;font-weight:normal;line-height:125%;letter-spacing:0px;word-spacing:0px;fill:#000000;fill-opacity:1;stroke:none;font-family:Bitstream Vera Sans"
       id="text5536">
      <path
         d="m 370.48828,209.7757 0,3.30078 -0.89844,0 0,-3.27149 c 0,-0.51757 -0.10091,-0.90494 -0.30273,-1.16211 -0.20183,-0.25715 -0.50456,-0.38573 -0.9082,-0.38574 -0.48503,1e-5 -0.86752,0.15463 -1.14746,0.46387 -0.27995,0.30925 -0.41993,0.7308 -0.41993,1.26465 l 0,3.09082 -0.90332,0 0,-7.59766 0.90332,0 0,2.97852 c 0.21485,-0.32877 0.46712,-0.57454 0.75684,-0.73731 0.29297,-0.16275 0.62988,-0.24413 1.01074,-0.24414 0.62825,1e-5 1.10351,0.19532 1.42578,0.58594 0.32226,0.38737 0.4834,0.95866 0.4834,1.71387"
         style=""
         id="path3936" />
      <path
         d="m 373.17871,206.05499 0,1.55274 1.85059,0 0,0.69824 -1.85059,0 0,2.96875 c 0,0.44596 0.0602,0.73242 0.18066,0.85937 0.1237,0.12696 0.37272,0.19043 0.74708,0.19043 l 0.92285,0 0,0.75196 -0.92285,0 c -0.69337,0 -1.17188,-0.12858 -1.43555,-0.38575 -0.26367,-0.26041 -0.39551,-0.73242 -0.39551,-1.41601 l 0,-2.96875 -0.65918,0 0,-0.69824 0.65918,0 0,-1.55274 0.90332,0"
         style=""
         id="path3938" />
      <path
         d="m 377.10449,206.05499 0,1.55274 1.85059,0 0,0.69824 -1.85059,0 0,2.96875 c 0,0.44596 0.0602,0.73242 0.18067,0.85937 0.12369,0.12696 0.37272,0.19043 0.74707,0.19043 l 0.92285,0 0,0.75196 -0.92285,0 c -0.69336,0 -1.17188,-0.12858 -1.43555,-0.38575 -0.26367,-0.26041 -0.39551,-0.73242 -0.39551,-1.41601 l 0,-2.96875 -0.65918,0 0,-0.69824 0.65918,0 0,-1.55274 0.90332,0"
         style=""
         id="path3940" />
      <path
         d="m 381.01074,212.25616 0,2.9004 -0.90332,0 0,-7.54883 0.90332,0 0,0.83008 c 0.1888,-0.32552 0.42643,-0.56641 0.71289,-0.72266 0.28971,-0.1595 0.63477,-0.23925 1.03516,-0.23926 0.66406,1e-5 1.20279,0.26368 1.61621,0.79102 0.41666,0.52734 0.62499,1.2207 0.625,2.08007 -10e-6,0.85938 -0.20834,1.55274 -0.625,2.08008 -0.41342,0.52735 -0.95215,0.79102 -1.61621,0.79102 -0.40039,0 -0.74545,-0.0781 -1.03516,-0.23438 -0.28646,-0.1595 -0.52409,-0.40201 -0.71289,-0.72754 m 3.05664,-1.90918 c 0,-0.6608 -0.13672,-1.17838 -0.41015,-1.55273 -0.27019,-0.3776 -0.64291,-0.5664 -1.11817,-0.56641 -0.47526,1e-5 -0.84961,0.18881 -1.12304,0.56641 -0.27019,0.37435 -0.40528,0.89193 -0.40528,1.55273 0,0.66081 0.13509,1.18002 0.40528,1.55762 0.27343,0.37435 0.64778,0.56153 1.12304,0.56153 0.47526,0 0.84798,-0.18718 1.11817,-0.56153 0.27343,-0.3776 0.41015,-0.89681 0.41015,-1.55762"
         style=""
         id="path3942" />
    </g>
    <flowRoot
       xml:space="preserve"
       id="flowRoot5540"
       style="font-size:10px;font-style:normal;font-weight:normal;line-height:125%;letter-spacing:0px;word-spacing:0px;fill:#000000;fill-opacity:1;stroke:none;font-family:Bitstream Vera Sans"><flowRegion
         id="flowRegion5542"><rect
           id="rect5544"
           width="52.142857"
           height="20"
           x="62.857143"
           y="148.07646" /></flowRegion><flowPara
         id="flowPara5546" /></flowRoot>  </g>
</svg>
